<svg xmlns="http://www.w3.org/2000/svg" width="705.931" height="226.229" viewBox="0 0 705.931 226.229">
  <g id="exemple_3_fond_noir" data-name="exemple 3 fond noir" transform="translate(-91.099 -20.203)">
    <path id="AGENCY" d="M195.239-21.656a21.745,21.745,0,0,1-9.308-1.926,19.209,19.209,0,0,1-7.081-5.789l-.005-.007a24.583,24.583,0,0,1-3.924-7.878,34.152,34.152,0,0,1-1.3-9.672,34.153,34.153,0,0,1,1.3-9.672,24.583,24.583,0,0,1,3.924-7.878,18.688,18.688,0,0,1,7-5.795,21.716,21.716,0,0,1,9.326-1.926,21.385,21.385,0,0,1,9.743,2.042,25.1,25.1,0,0,1,7.707,6.525l.6.72-8.274,8.11-.709-.8c-2.946-3.325-6-5.01-9.064-5.01a8.012,8.012,0,0,0-7.454,4.3l0,.006a18.415,18.415,0,0,0-2.164,9.378,18.415,18.415,0,0,0,2.164,9.378l0,.006a8.012,8.012,0,0,0,7.454,4.3c3.274,0,6.427-1.856,9.371-5.515l.7-.869,8.326,8.079-.616.725c-2.905,3.421-5.389,5.689-7.592,6.934A20.537,20.537,0,0,1,195.239-21.656Zm-14.776-8.951c3.579,4.656,8.412,6.918,14.776,6.918a18.572,18.572,0,0,0,9.122-1.969,27.318,27.318,0,0,0,6.421-5.76L205.41-36.63a18.251,18.251,0,0,1-4.478,3.81,11.382,11.382,0,0,1-5.761,1.611,10.021,10.021,0,0,1-9.21-5.313h0a20.392,20.392,0,0,1-2.443-10.406,20.392,20.392,0,0,1,2.443-10.406,10.021,10.021,0,0,1,9.21-5.313,11.387,11.387,0,0,1,5.483,1.462,18.385,18.385,0,0,1,4.378,3.448l5.419-5.312a22.223,22.223,0,0,0-6.458-5.3,19.4,19.4,0,0,0-8.821-1.82c-6.406,0-11.215,2.261-14.7,6.911-3.193,4.228-4.811,9.721-4.811,16.329S177.275-34.832,180.463-30.607ZM66.3-21.724a20.274,20.274,0,0,1-9.108-1.97,17.741,17.741,0,0,1-6.7-5.922A24.586,24.586,0,0,1,47-37.333a37.332,37.332,0,0,1-1.152-9.6,37.156,37.156,0,0,1,1.17-9.649,24.4,24.4,0,0,1,3.555-7.74,17.847,17.847,0,0,1,6.789-5.867,20.914,20.914,0,0,1,9.219-1.949A19.385,19.385,0,0,1,76.5-69.69a26.208,26.208,0,0,1,7.277,6.972l.56.74L76.06-54.441l-.672-.882a17.735,17.735,0,0,0-3.813-3.9,9.275,9.275,0,0,0-5-1.325,7.491,7.491,0,0,0-6.682,3.217c-1.545,2.255-2.329,5.755-2.329,10.4s.789,8.144,2.344,10.4a7.568,7.568,0,0,0,6.735,3.219,5.6,5.6,0,0,0,4.929-2.348,9.38,9.38,0,0,0,1.541-4.833H64.746v-10.3H84.733v28.524H74.57v-1.921a9.194,9.194,0,0,1-2.376,1.533A15.066,15.066,0,0,1,66.3-21.724ZM66.575-70.1c-6.348,0-11.041,2.275-14.347,6.955-2.888,4.1-4.353,9.552-4.353,16.216,0,6.622,1.443,12.058,4.29,16.155,3.262,4.722,7.887,7.016,14.139,7.016a13.373,13.373,0,0,0,5.086-.764,9.221,9.221,0,0,0,3.4-2.849L76.6-29.651V-24.3h6.1V-48.757H66.779v6.233h8.4v1.016a11.979,11.979,0,0,1-1.946,7.021,7.6,7.6,0,0,1-6.591,3.21,9.585,9.585,0,0,1-8.408-4.1A14.263,14.263,0,0,1,56.188-40.3a29.945,29.945,0,0,1-.657-6.63,30.135,30.135,0,0,1,.652-6.629,14.313,14.313,0,0,1,2.033-4.922,9.508,9.508,0,0,1,8.359-4.1,11.264,11.264,0,0,1,6.1,1.646l.03.019a17.838,17.838,0,0,1,3.617,3.488l5.275-4.8a22.989,22.989,0,0,0-6.11-5.708l0,0A17.392,17.392,0,0,0,66.575-70.1ZM240.769-22.266H229.048v-16.5L212.7-71.59h13.127l9.108,19.355,9.045-19.355h13.055l-16.27,32.962ZM231.08-24.3h7.656V-39.1l.1-.213,14.927-30.242h-8.491l-10.332,22.11-10.4-22.11h-8.554L231.08-39.24Zm-62.875,2.033h-9.364l-15.7-24.512v24.512H131.415V-71.59h9.433l15.636,24.5v-24.5h11.721ZM159.953-24.3h6.219V-69.558h-7.656v29.431L139.734-69.558h-6.286V-24.3H141.1v-29.42Zm-34.636,2.033H90.831V-71.59h34.486V-60H102.552v6.843H122.4v11.179H102.552v8.13h22.765ZM92.864-24.3h30.421v-7.521H100.52v-12.2h19.852v-7.114H100.52V-62.037h22.765v-7.521H92.864ZM45.632-22.266h-12.7L28.664-34.123H14.713L10.444-22.266H-2.183L16.756-71.59h9.8ZM34.361-24.3h8.3L25.159-69.558H18.152L.775-24.3H9.016l4.268-11.857H30.093ZM27.713-42.592H15.672l5.976-16.68Zm-9.154-2.033h6.252l-3.149-8.66Z" transform="translate(539.992 268.087)" fill="rgba(5,242,219,0.78)"/>
    <path id="Tracé_1" data-name="Tracé 1" d="M147.492-174.5,119.883-56.27H93.29L75-127.581,56.7-56.27H30.11L2.5-174.5H27.23L44.338-96.075l21-78.425h19.31l21,78.425L122.762-174.5ZM242.178-56.27H161.043V-174.5h81.135v23.883H185.265v22.189h49.629v22.867H185.265v25.408h56.913Zm77.517.007L262.5-56.27V-174.5h24.052v94.855h33.131Z" transform="translate(88.599 226.547)" fill="#05f2f2"/>
    <path id="COM" d="M60.686-54.584a60.2,60.2,0,0,1-12.114-1.178,48.4,48.4,0,0,1-10.8-3.556,45.269,45.269,0,0,1-9.415-5.939,50.249,50.249,0,0,1-7.977-8.282l-.009-.011a58.332,58.332,0,0,1-5.648-9.137A63.75,63.75,0,0,1,10.7-92.977a75.645,75.645,0,0,1-2.4-11.415,95.053,95.053,0,0,1-.8-12.526,95.053,95.053,0,0,1,.8-12.526,75.648,75.648,0,0,1,2.4-11.415,63.751,63.751,0,0,1,4.025-10.289,58.33,58.33,0,0,1,5.648-9.137,48.7,48.7,0,0,1,7.84-8.287,44.227,44.227,0,0,1,9.346-5.944,47.958,47.958,0,0,1,10.788-3.557,60.585,60.585,0,0,1,12.166-1.178,64.192,64.192,0,0,1,13.006,1.242,43.881,43.881,0,0,1,10.967,3.769,50.521,50.521,0,0,1,9.686,6.549,76.635,76.635,0,0,1,9.313,9.548l.993,1.2L84.991-137.835l-1.181-1.333c-7.532-8.5-15.369-12.811-23.293-12.811-8.688,0-15.023,3.657-19.367,11.179l-.006.01c-3.667,6.256-5.526,14.288-5.526,23.873S37.477-99.3,41.144-93.044l.006.01c4.344,7.523,10.679,11.179,19.367,11.179,8.453,0,16.558-4.745,24.088-14.1l1.165-1.448,19.579,19L104.323-77.2a118.265,118.265,0,0,1-9.971,10.527,49.426,49.426,0,0,1-8.78,6.62,40.068,40.068,0,0,1-11.143,4.118A64.86,64.86,0,0,1,60.686-54.584ZM23.076-75.6c8.991,11.7,21.645,17.625,37.61,17.625,9.483,0,17.3-1.693,23.221-5.033,4.742-2.68,10.39-7.786,16.8-15.187L86.06-92.405a55.037,55.037,0,0,1-5.037,5.214,39.379,39.379,0,0,1-6.529,4.811,29.692,29.692,0,0,1-6.85,2.929,26.376,26.376,0,0,1-7.127.984c-9.862,0-17.364-4.329-22.3-12.865A41.386,41.386,0,0,1,33.714-102.9a62.121,62.121,0,0,1-1.484-14.02,62.123,62.123,0,0,1,1.484-14.02A41.387,41.387,0,0,1,38.22-142.5c4.933-8.537,12.434-12.865,22.3-12.865a27.631,27.631,0,0,1,13.3,3.552,39.842,39.842,0,0,1,6.36,4.367,55.091,55.091,0,0,1,4.968,4.717l14.731-14.439c-5.5-6.406-11.186-11.129-16.923-14.049-6.054-3.081-13.6-4.643-22.437-4.643-16.072,0-28.667,5.927-37.434,17.616l0,0c-8.09,10.714-12.192,24.618-12.192,41.325S14.988-86.31,23.076-75.6ZM162.994-54.753a59.437,59.437,0,0,1-12.13-1.19,46.169,46.169,0,0,1-10.671-3.6,42.1,42.1,0,0,1-9.144-6.012,46.443,46.443,0,0,1-7.546-8.377h0a54.934,54.934,0,0,1-5.124-8.87,64.374,64.374,0,0,1-3.643-10.134,80.919,80.919,0,0,1-2.174-11.376,105.957,105.957,0,0,1-.721-12.61,105.957,105.957,0,0,1,.721-12.61,80.92,80.92,0,0,1,2.174-11.376,64.373,64.373,0,0,1,3.643-10.134,54.935,54.935,0,0,1,5.124-8.87,46.444,46.444,0,0,1,7.546-8.377,42.1,42.1,0,0,1,9.144-6.012,46.169,46.169,0,0,1,10.671-3.6,59.436,59.436,0,0,1,12.13-1.19,59.436,59.436,0,0,1,12.13,1.19,46.169,46.169,0,0,1,10.671,3.6,42.1,42.1,0,0,1,9.144,6.012,46.443,46.443,0,0,1,7.546,8.377h0a54.939,54.939,0,0,1,5.124,8.87,64.374,64.374,0,0,1,3.643,10.134,80.921,80.921,0,0,1,2.174,11.376,105.96,105.96,0,0,1,.721,12.61,105.961,105.961,0,0,1-.721,12.61,80.921,80.921,0,0,1-2.174,11.376A64.375,64.375,0,0,1,207.609-82.8a54.937,54.937,0,0,1-5.124,8.87,46.445,46.445,0,0,1-7.546,8.377,42.1,42.1,0,0,1-9.144,6.012,46.168,46.168,0,0,1-10.671,3.6A59.437,59.437,0,0,1,162.994-54.753Zm0-120.94c-16.052,0-28.409,5.971-36.728,17.746l0,.006c-7.322,10.272-11.034,24.075-11.034,41.024s3.712,30.752,11.034,41.024l0,.006c8.319,11.776,20.676,17.746,36.728,17.746s28.409-5.971,36.728-17.746l0-.006c7.322-10.272,11.034-24.075,11.034-41.024s-3.712-30.752-11.034-41.024l0-.006C191.4-169.722,179.046-175.693,162.994-175.693ZM340.169-56.108H312.39v-48.627L292.524-56.108H275.171l-19.693-48.567v48.567H227.7V-177.726h25.88l.424,1.069,29.779,75.01,30.856-76.078h25.532ZM315.778-59.5h21V-174.338H316.919L283.748-92.551l-32.469-81.787H231.086V-59.5h21V-113.36l3.264-.637,22.1,54.5h12.8L312.516-114l3.262.641ZM162.994-78.636c-8.91,0-15.705-3.325-20.2-9.883a34.944,34.944,0,0,1-4.954-12.014,74.5,74.5,0,0,1-1.609-16.384,74.5,74.5,0,0,1,1.609-16.384,34.944,34.944,0,0,1,4.954-12.014c4.493-6.558,11.289-9.883,20.2-9.883s15.705,3.325,20.2,9.883a34.944,34.944,0,0,1,4.954,12.014,74.5,74.5,0,0,1,1.609,16.384,74.5,74.5,0,0,1-1.609,16.384,34.944,34.944,0,0,1-4.954,12.014C178.7-81.961,171.9-78.636,162.994-78.636Zm0-73.174c-7.834,0-13.527,2.751-17.4,8.41-3.962,5.782-5.971,14.692-5.971,26.483s2.009,20.7,5.971,26.483c3.878,5.659,9.571,8.41,17.4,8.41s13.527-2.751,17.4-8.41c3.962-5.782,5.971-14.692,5.971-26.483s-2.009-20.7-5.971-26.483C176.521-149.059,170.828-151.81,162.994-151.81Z" transform="translate(453.533 228.078)" fill="rgba(5,242,219,0.78)"/>
    <path id="Tracé_2" data-name="Tracé 2" d="M484.443-13.09h-18.4V-36.5h18.4ZM468.752-15.8h12.98V-33.79h-12.98Z" transform="translate(-57.795 183.349)" fill="rgba(5,242,219,0.78)"/>
    <path id="Ligne_1" data-name="Ligne 1" d="M-1.612,174.546A3.388,3.388,0,0,1-5,171.159V-1.612A3.388,3.388,0,0,1-1.612-5,3.388,3.388,0,0,1,1.775-1.612V171.159A3.388,3.388,0,0,1-1.612,174.546Z" transform="translate(413.185 25.203)" fill="#05f2f2"/>
    <path id="Ellipse_1" data-name="Ellipse 1" d="M11.518,2.71A8.808,8.808,0,0,0,5.29,17.746,8.808,8.808,0,1,0,17.746,5.29a8.75,8.75,0,0,0-6.228-2.58m0-2.71A11.518,11.518,0,1,1,0,11.518,11.518,11.518,0,0,1,11.518,0Z" transform="translate(439.013 147.24)" fill="#fe4c4c"/>
  </g>
</svg>
